<svg width="48" height="48" viewBox="0 0 48 48" fill="none" xmlns="http://www.w3.org/2000/svg">
<path d="M25.4142 20.8285L43.1716 38.5858C44.4315 39.8458 43.5392 42 41.7574 42H6.24265C4.46084 42 3.5685 39.8458 4.82843 38.5858L22.5858 20.8285C23.3668 20.0474 24.6332 20.0474 25.4142 20.8285Z" stroke="#362B23" stroke-width="2"/>
<path d="M20.0344 16C17.8443 16 15.5731 18.5 16.0688 21C16.0688 23.2091 20.5301 29 24 29C27.4699 29 31.9312 23.2091 31.9312 21C32.4269 18 30.1557 16 27.9656 16C25.7755 16 24 17.7909 24 20C24 17.7909 22.2245 16 20.0344 16Z" fill="#EF7E5B" stroke="#362B23" stroke-width="2" stroke-linecap="round" stroke-linejoin="round"/>
<path d="M19 9C19 6.23858 21.2386 4 24 4C26.7614 4 29 6.23858 29 9C29 11.0706 27.7414 12.8472 25.9475 13.6065C24.9303 14.0371 24 14.8954 24 16V18" stroke="#362B23" stroke-width="2" stroke-linecap="round" stroke-linejoin="round"/>
</svg>
