<svg width="33" height="31" viewBox="0 0 33 31" fill="none" xmlns="http://www.w3.org/2000/svg">
<path fill-rule="evenodd" clip-rule="evenodd" d="M7.51896 6.3922C8.23929 5.48328 9.35244 4.87963 10.6516 4.87963L28.2049 4.87963C30.9977 4.87963 32.9308 7.66912 31.9502 10.2841L29.1307 17.8027C28.5453 19.3639 27.0528 20.3982 25.3854 20.3982L13.4711 20.3982C11.8037 20.3982 10.3112 19.3639 9.72577 17.8027L7.46336 11.7696C7.41345 11.7004 7.37164 11.6236 7.33982 11.54L4.44153 3.93202C3.99838 2.76875 2.88289 2 1.63807 2H1C0.447715 2 0 1.55228 0 1C0 0.447715 0.447715 0 1 0H1.63807C3.71277 0 5.57192 1.28125 6.31051 3.22003L7.51896 6.3922ZM25.3854 18.3982L13.4711 18.3982C12.6374 18.3982 11.8912 17.881 11.5984 17.1004L8.77898 9.58188C8.28866 8.27438 9.25522 6.87963 10.6516 6.87963L28.2049 6.87963C29.6013 6.87963 30.5678 8.27438 30.0775 9.58188L27.2581 17.1004C26.9654 17.881 26.2191 18.3982 25.3854 18.3982ZM13.6088 28.0972C14.6469 28.0972 15.4884 27.2557 15.4884 26.2176C15.4884 25.1795 14.6469 24.338 13.6088 24.338C12.5707 24.338 11.7292 25.1795 11.7292 26.2176C11.7292 27.2557 12.5707 28.0972 13.6088 28.0972ZM13.6088 30.0972C15.7515 30.0972 17.4884 28.3603 17.4884 26.2176C17.4884 24.0749 15.7515 22.338 13.6088 22.338C11.4661 22.338 9.72917 24.0749 9.72917 26.2176C9.72917 28.3603 11.4661 30.0972 13.6088 30.0972ZM27.1273 26.2176C27.1273 27.2557 26.2858 28.0972 25.2477 28.0972C24.2096 28.0972 23.3681 27.2557 23.3681 26.2176C23.3681 25.1795 24.2096 24.338 25.2477 24.338C26.2858 24.338 27.1273 25.1795 27.1273 26.2176ZM29.1273 26.2176C29.1273 28.3603 27.3904 30.0972 25.2477 30.0972C23.105 30.0972 21.3681 28.3603 21.3681 26.2176C21.3681 24.0749 23.105 22.338 25.2477 22.338C27.3904 22.338 29.1273 24.0749 29.1273 26.2176Z" fill="#362B23"/>
</svg>
