<svg width="48" height="48" viewBox="0 0 48 48" fill="none" xmlns="http://www.w3.org/2000/svg">
<path d="M38 23V39C38 40.1046 37.1046 41 36 41H12C10.8954 41 10 40.1046 10 39V23C10 21.8954 10.8954 21 12 21H36C37.1046 21 38 21.8954 38 23Z" fill="#EF7E5B" stroke="#362B23" stroke-width="2"/>
<path d="M11 15H37C39.2091 15 41 16.7909 41 19V21C41 22.1046 40.1046 23 39 23H9C7.89543 23 7 22.1046 7 21V19C7 16.7909 8.79086 15 11 15Z" fill="#FFC7B6" stroke="#362B23" stroke-width="2"/>
<line x1="25" y1="14" x2="25" y2="42" stroke="#362B23" stroke-width="2"/>
<path d="M25 10.5V15H20.5C18.0147 15 16 12.9853 16 10.5C16 8.01472 18.0147 6 20.5 6C22.9853 6 25 8.01472 25 10.5Z" stroke="#362B23" stroke-width="2"/>
<path d="M25 10.5V15H29.5C31.9853 15 34 12.9853 34 10.5C34 8.01472 31.9853 6 29.5 6C27.0147 6 25 8.01472 25 10.5Z" stroke="#362B23" stroke-width="2"/>
</svg>
