<svg width="48" height="48" viewBox="0 0 48 48" fill="none" xmlns="http://www.w3.org/2000/svg">
<path d="M11.0688 17.9003C10.6565 13.1042 12.1304 9.67005 14.5116 7.42325C16.9175 5.15317 20.3521 4 24 4C27.6479 4 31.0825 5.15317 33.4884 7.42325C35.8696 9.67005 37.3435 13.1042 36.9312 17.9003C36.6431 21.2515 34.9038 25.0263 32.6811 28.5732C30.4728 32.0973 27.8564 35.2891 25.9401 37.4555C24.8879 38.6451 23.1121 38.6451 22.0599 37.4555C20.1436 35.2891 17.5272 32.0973 15.3189 28.5732C13.0962 25.0263 11.3569 21.2515 11.0688 17.9003Z" fill="#EF7E5B" stroke="#362B23" stroke-width="2"/>
<circle cx="24" cy="17" r="7" fill="#FFC7B6" stroke="#362B23" stroke-width="2"/>
<path d="M27.2998 41.4118L26.1213 42.5903C24.9497 43.7619 23.0503 43.7619 21.8787 42.5903L20.7002 41.4118" stroke="#362B23" stroke-width="2" stroke-linecap="round"/>
</svg>
