<svg width="48" height="48" viewBox="0 0 48 48" fill="none" xmlns="http://www.w3.org/2000/svg">
<path d="M18.6522 6.56021C21.4239 3.14659 26.5761 3.1466 29.3478 6.56021L30.3889 7.84234C31.4519 9.15158 32.9456 10.0267 34.5944 10.3063L36.2091 10.5802C40.5081 11.3093 43.0842 15.8373 41.5569 19.98L40.9833 21.536C40.3975 23.1249 40.3975 24.8751 40.9833 26.464L41.5569 28.02C43.0842 32.1627 40.5081 36.6907 36.2091 37.4198L34.5944 37.6937C32.9456 37.9733 31.4519 38.8484 30.3889 40.1577L29.3478 41.4398C26.5761 44.8534 21.4239 44.8534 18.6522 41.4398L17.6111 40.1577C16.5481 38.8484 15.0544 37.9733 13.4056 37.6937L11.7909 37.4198C7.49186 36.6907 4.91581 32.1627 6.44308 28.02L7.01671 26.464C7.60248 24.8751 7.60248 23.1249 7.01671 21.536L6.44308 19.98C4.91581 15.8373 7.49187 11.3093 11.7909 10.5802L13.4056 10.3063C15.0544 10.0267 16.5481 9.15158 17.6111 7.84233L18.6522 6.56021Z" stroke="#362B23" stroke-width="2"/>
<circle cx="24" cy="24" r="13" fill="#EF7E5B" stroke="#362B23" stroke-width="2"/>
<path d="M27.0215 19.8413L25.856 16.9386C25.1842 15.2655 22.8158 15.2655 22.144 16.9386L20.9785 19.8413L17.8577 20.0528C16.059 20.1746 15.3271 22.4271 16.7106 23.583L19.1111 25.5885L18.3479 28.6219C17.908 30.3703 19.824 31.7624 21.3509 30.8037L24 29.1405L26.6491 30.8037C28.176 31.7624 30.092 30.3703 29.6521 28.6219L28.8889 25.5885L31.2894 23.583C32.6729 22.4271 31.941 20.1746 30.1423 20.0528L27.0215 19.8413Z" fill="#FFC7B6" stroke="#362B23" stroke-width="2"/>
</svg>
